# xmcd CD database file
#
# Track frame offsets:
#	150
#	13174
#	27325
#	39514
#	53092
#	65661
#	79225
#	91728
#	103417
#	116744
#	129331
#	142044
#	153046
#	165711
#	176378
#	188390
#	200607
#	213801
#	226052
#	238229
#	252278
#	265167
#	274811
#	286641
#	298901
#	310487
#	323716
#
# Disc length: 4466 seconds
#
# Revision: 0
# Processed by: cddbd v1.5.1PL0 Copyright (c) Steve Scherf et al.
# Submitted via: Feurio! 1.67 - http://www.feurio.com
#
DISCID=8111701b
DTITLE=Various Artist - Legends of Country [CD1 of 3)
DYEAR=1900
DGENRE=
TTITLE0=Hank Williams - Jambalaya (On The Bayou)
TTITLE1=Slim Whitman - Indian Love Call
TTITLE2=Hank Thompson - The Wild Side Of Life
TTITLE3=Pee Wee King - Slow Poke
TTITLE4=Hank Snow - The Golden Rocket
TTITLE5=Stuart Hamblen - (Remember Me) I'm The One Who Loves You
TTITLE6=Tex Ritter - High Noon (Do Not Forsake Me)
TTITLE7=Kay Starr and Tennessee Ernie Ford - I'll Never Be Free
TTITLE8=Lefty Frizzell - If You've Got The Money I've Got The Time
TTITLE9=George Morgan - Room Full Of Roses
TTITLE10=Ernest Tubb and The Andrews Sisters - I'm Bitin' My Fingernails And 
TTITLE10=Thinking Of You
TTITLE11=Del Wood - Down Yonder
TTITLE12=Delmore Brothers - Blues Stay Away From Me
TTITLE13=Eddy Arnold - The Cattle Call
TTITLE14=Merle Travis - No Vacancy
TTITLE15=Floyd Tillman - I Love You So Much It Hurts
TTITLE16=Homer and Jethro with June Carter - Baby It's Cold Outside
TTITLE17=Lester Flatt and Earl Scruggs - Don't Get Above Your Raisin'
TTITLE18=Hawkshaw Hawkins - Doghouse Boogie
TTITLE19=Tommy Duncan - Gambling Polka Dot Blues
TTITLE20=Roy Acuff - Jole Blon
TTITLE21=Tennessee Ernie Ford with Cliffie Stone - Anticipation Blues
TTITLE22=Dolph Hewitt - I Wish I Knew
TTITLE23='Little' Jimmy Dickins - A-Sleepin' At The Foot Of The Bed
TTITLE24=Cowboy Copas - Hangman's Boogie
TTITLE25=Sons Of The Pioneers - Teardrops In My Heart
TTITLE26=Zeke Manners - Sioux City Sue
EXTD=
EXTT0=
EXTT1=
EXTT2=
EXTT3=
EXTT4=
EXTT5=
EXTT6=
EXTT7=
EXTT8=
EXTT9=
EXTT10=
EXTT11=
EXTT12=
EXTT13=
EXTT14=
EXTT15=
EXTT16=
EXTT17=
EXTT18=
EXTT19=
EXTT20=
EXTT21=
EXTT22=
EXTT23=
EXTT24=
EXTT25=
EXTT26=
PLAYORDER=
